<?xml version="1.0" encoding="utf-8"?>
<!-- Generator: Adobe Illustrator 24.1.0, SVG Export Plug-In . SVG Version: 6.00 Build 0)  -->
<svg version="1.1" xmlns="http://www.w3.org/2000/svg" xmlns:xlink="http://www.w3.org/1999/xlink" x="0px" y="0px"
	 viewBox="0 0 1920 1080" style="enable-background:new 0 0 1920 1080;" xml:space="preserve">
<style type="text/css">
	.st0{display:none;}
	.st1{display:inline;fill:#ED1E79;}
	.st2{fill:#FFFFFF;}
</style>
<g id="Layer_1" class="st0">
	<rect x="400.71" y="424.58" class="st1" width="122.74" height="449.39"/>
	<rect x="619.12" y="246.76" class="st1" width="122.74" height="625.76"/>
	<rect x="1751.77" y="431.34" class="st1" width="122.74" height="449.39"/>
	<rect x="837.53" y="424.58" class="st1" width="122.74" height="449.39"/>
	<rect x="1190.04" y="623.66" class="st1" width="122.74" height="248.17"/>
	<rect x="1541.81" y="642.02" class="st1" width="112.35" height="237.01"/>
	<path class="st1" d="M279.91,414.91C151.28,414.91,47,519.19,47,647.82c0,128.63,104.28,232.91,232.91,232.91
		s232.91-104.28,232.91-232.91C512.81,519.19,408.54,414.91,279.91,414.91z M283.29,766.69c-64.85,0-117.42-52.57-117.42-117.42
		c0-64.85,52.57-117.42,117.42-117.42c64.85,0,117.42,52.57,117.42,117.42C400.71,714.12,348.14,766.69,283.29,766.69z"/>
	<path class="st1" d="M957.25,646.86c6.97-58.23,56.68-103.41,117.07-103.41c60.39,0,110.1,45.18,117.07,103.41h112.92
		c-6.6-122.75-108.4-220.34-233.39-220.34c-124.99,0-226.79,97.59-233.39,220.34H957.25z"/>
	<path class="st1" d="M1311.65,646.86c6.88-58.23,55.94-103.41,115.53-103.41c59.6,0,108.65,45.18,115.53,103.41h111.44
		c-6.51-122.75-106.98-220.34-230.33-220.34c-123.35,0-223.82,97.59-230.33,220.34H1311.65z"/>
	<circle class="st1" cx="1813.14" cy="300.63" r="75.86"/>
</g>
<g id="Layer_1_copy">
	<rect x="400.71" y="424.58" class="st2" width="122.74" height="449.39"/>
	<rect x="619.12" y="517.36" class="st2" width="122.74" height="355.16"/>
	<rect x="619.12" y="246.76" class="st2" width="122.74" height="270.6"/>
	<rect x="1751.77" y="786.02" class="st2" width="122.74" height="94.71"/>
	<rect x="1751.77" y="600.47" class="st2" width="122.74" height="185.55"/>
	<rect x="1751.77" y="426.51" class="st2" width="122.74" height="173.96"/>
	<rect x="837.53" y="424.58" class="st2" width="122.74" height="449.39"/>
	<rect x="1199.3" y="623.66" class="st2" width="116.61" height="248.17"/>
	<rect x="1544.31" y="642.02" class="st2" width="109.85" height="237.01"/>
	<path class="st2" d="M279.91,414.91C151.28,414.91,47,519.19,47,647.82c0,128.63,104.28,232.91,232.91,232.91
		s232.91-104.28,232.91-232.91C512.81,519.19,408.54,414.91,279.91,414.91z M283.29,766.69c-64.85,0-117.42-52.57-117.42-117.42
		c0-64.85,52.57-117.42,117.42-117.42c64.85,0,117.42,52.57,117.42,117.42C400.71,714.12,348.14,766.69,283.29,766.69z"/>
	<path class="st2" d="M1315.96,646.86c6.79-58.23,55.23-103.41,114.08-103.41c58.85,0,107.29,45.18,114.08,103.41h110.04
		c-6.43-122.75-105.63-220.34-227.43-220.34c-121.8,0-221,97.59-227.43,220.34H1315.96z"/>
	<path class="st2" d="M960.23,646.86c7.14-58.23,58.09-103.41,119.98-103.41c61.89,0,112.83,45.18,119.98,103.41h115.73
		c-6.76-122.75-111.1-220.34-239.19-220.34c-128.09,0-232.43,97.59-239.19,220.34H960.23z"/>
	<circle class="st2" cx="1813.14" cy="300.63" r="75.86"/>
	<path class="st2" d="M248.98,507.69"/>
</g>
</svg>
